<svg width="20" height="20" viewBox="0 0 20 20" fill="none" xmlns="http://www.w3.org/2000/svg">
<path fill-rule="evenodd" clip-rule="evenodd" d="M10.0016 0C12.675 0 15.1874 1.03936 17.0745 2.92733C20.9752 6.82795 20.9752 13.1739 17.0745 17.0745C15.1622 18.9876 12.5875 20 9.97927 20C8.55744 20 7.1263 19.6995 5.78729 19.0797C5.39275 18.9216 5.02334 18.7727 4.75814 18.7727C4.45293 18.7745 4.04257 18.916 3.64617 19.0528C2.8329 19.3319 1.8205 19.6799 1.07143 18.9337C0.325157 18.1865 0.669448 17.1769 0.946742 16.3646C1.08353 15.9645 1.22404 15.5513 1.22404 15.2387C1.22404 14.9819 1.10028 14.6543 0.910452 14.1826C-0.832406 10.4187 -0.0265781 5.88257 2.92967 2.92826C4.81676 1.04029 7.32822 0 10.0016 0ZM10.0025 1.39574C7.70136 1.39574 5.53977 2.29087 3.91602 3.91551C1.37199 6.45762 0.679684 10.361 2.19177 13.6298C2.40951 14.1686 2.61981 14.6934 2.61981 15.2387C2.61981 15.783 2.43278 16.3311 2.26808 16.8149C2.13222 17.2132 1.92658 17.8143 2.05871 17.9464C2.18805 18.0804 2.79289 17.8692 3.19208 17.7324C3.67129 17.5686 4.21472 17.3807 4.75349 17.3769C5.29319 17.3769 5.80218 17.5816 6.34095 17.7985C9.64149 19.3245 13.545 18.6303 16.0881 16.0882C19.4436 12.731 19.4436 7.26994 16.0881 3.91458C14.4634 2.28994 12.3028 1.39574 10.0025 1.39574ZM13.6752 9.45631C14.1888 9.45631 14.6057 9.87224 14.6057 10.3868C14.6057 10.9014 14.1888 11.3173 13.6752 11.3173C13.1615 11.3173 12.7409 10.9014 12.7409 10.3868C12.7409 9.87224 13.1532 9.45631 13.6668 9.45631H13.6752ZM9.94493 9.45631C10.4586 9.45631 10.8754 9.87224 10.8754 10.3868C10.8754 10.9014 10.4586 11.3173 9.94493 11.3173C9.43129 11.3173 9.01069 10.9014 9.01069 10.3868C9.01069 9.87224 9.42198 9.45631 9.93656 9.45631H9.94493ZM6.2143 9.45631C6.72795 9.45631 7.14482 9.87224 7.14482 10.3868C7.14482 10.9014 6.72795 11.3173 6.2143 11.3173C5.70066 11.3173 5.28007 10.9014 5.28007 10.3868C5.28007 9.87224 5.69228 9.45631 6.20593 9.45631H6.2143Z" fill="#919EAB"/>
</svg>
