<svg width="20" height="20" viewBox="0 0 20 20" fill="none" xmlns="http://www.w3.org/2000/svg">
<path d="M10.8335 8.33301L15.791 16.263C15.8157 16.3029 15.8294 16.3487 15.8305 16.3957C15.8317 16.4426 15.8203 16.4891 15.7976 16.5301C15.7748 16.5712 15.7415 16.6055 15.7011 16.6295C15.6607 16.6534 15.6146 16.6661 15.5677 16.6663H4.43266C4.38545 16.6661 4.33917 16.6532 4.29862 16.629C4.25808 16.6049 4.22476 16.5702 4.20213 16.5288C4.17949 16.4874 4.16838 16.4406 4.16994 16.3934C4.1715 16.3463 4.18568 16.3004 4.211 16.2605L9.16683 8.33301V2.49967H10.8335V8.33301ZM5.8335 0.833008V2.49967H7.50016V7.88301L2.79933 15.3747C2.61604 15.6668 2.5143 16.0026 2.50466 16.3474C2.49502 16.6921 2.57785 17.0331 2.74453 17.335C2.91121 17.6369 3.15567 17.8887 3.45253 18.0642C3.74938 18.2397 4.08781 18.3325 4.43266 18.333H15.5677C15.9125 18.3325 16.2509 18.2397 16.5478 18.0642C16.8447 17.8887 17.0891 17.6369 17.2558 17.335C17.4225 17.0331 17.5053 16.6921 17.4957 16.3474C17.486 16.0026 17.3843 15.6668 17.201 15.3747L12.501 7.88301L12.5002 2.49967H14.1668V0.833008H5.8335Z" fill="#30CF72"/>
</svg>
