<svg width="20" height="20" viewBox="0 0 20 20" fill="none" xmlns="http://www.w3.org/2000/svg">
<path d="M8.33333 4.16667L10 2.5M6.66667 13.3333L13.3333 6.66667M10 17.5L11.6667 15.8333M13.75 15.8333C14.3025 15.8333 14.8324 15.6138 15.2231 15.2231C15.6138 14.8324 15.8333 14.3025 15.8333 13.75C15.8333 13.1975 15.6138 12.6676 15.2231 12.2769C14.8324 11.8862 14.3025 11.6667 13.75 11.6667C13.1975 11.6667 12.6676 11.8862 12.2769 12.2769C11.8862 12.6676 11.6667 13.1975 11.6667 13.75C11.6667 14.3025 11.8862 14.8324 12.2769 15.2231C12.6676 15.6138 13.1975 15.8333 13.75 15.8333V15.8333ZM6.25 8.33333C6.80253 8.33333 7.33244 8.11384 7.72314 7.72314C8.11384 7.33244 8.33333 6.80253 8.33333 6.25C8.33333 5.69747 8.11384 5.16756 7.72314 4.77686C7.33244 4.38616 6.80253 4.16667 6.25 4.16667C5.69747 4.16667 5.16756 4.38616 4.77686 4.77686C4.38616 5.16756 4.16667 5.69747 4.16667 6.25C4.16667 6.80253 4.38616 7.33244 4.77686 7.72314C5.16756 8.11384 5.69747 8.33333 6.25 8.33333V8.33333ZM4.58333 17.5C5.13587 17.5 5.66577 17.2805 6.05647 16.8898C6.44717 16.4991 6.66667 15.9692 6.66667 15.4167C6.66667 14.8641 6.44717 14.3342 6.05647 13.9435C5.66577 13.5528 5.13587 13.3333 4.58333 13.3333C4.0308 13.3333 3.50089 13.5528 3.11019 13.9435C2.71949 14.3342 2.5 14.8641 2.5 15.4167C2.5 15.9692 2.71949 16.4991 3.11019 16.8898C3.50089 17.2805 4.0308 17.5 4.58333 17.5V17.5ZM15.4167 6.66667C15.9692 6.66667 16.4991 6.44717 16.8898 6.05647C17.2805 5.66577 17.5 5.13587 17.5 4.58333C17.5 4.0308 17.2805 3.50089 16.8898 3.11019C16.4991 2.71949 15.9692 2.5 15.4167 2.5C14.8641 2.5 14.3342 2.71949 13.9435 3.11019C13.5528 3.50089 13.3333 4.0308 13.3333 4.58333C13.3333 5.13587 13.5528 5.66577 13.9435 6.05647C14.3342 6.44717 14.8641 6.66667 15.4167 6.66667Z" stroke="#FFD200" stroke-width="1.66667" stroke-linecap="round" stroke-linejoin="round"/>
</svg>
