<svg width="74" height="74" viewBox="0 0 74 74" fill="none" xmlns="http://www.w3.org/2000/svg">
<circle cx="37" cy="37" r="37" fill="#E1FFF2"/>
<path d="M42.0001 22.6667C42.0001 21.7458 39.5101 21 37.0001 21C34.4901 21 32.0001 21.7458 32.0001 22.6667L31.2901 25.0342C31.5842 25.0792 31.9084 25.1267 32.2509 25.1742C33.7476 25.3825 35.5759 25.5833 37.0001 25.5833C38.4251 25.5833 40.2526 25.3817 41.7492 25.175C42.0917 25.1267 42.4159 25.0792 42.7101 25.0342L42.0001 22.6667ZM43.3226 26.6258C42.9326 26.6875 42.4751 26.7567 41.9776 26.8258C40.4667 27.0342 38.5442 27.25 37.0001 27.25C35.4551 27.25 33.5334 27.035 32.0226 26.825C31.5736 26.7628 31.1253 26.6964 30.6776 26.6258C27.9459 27.2317 26.1667 28.2183 26.1667 29.3333C26.1667 31.175 31.0167 32.6667 37.0001 32.6667C42.9834 32.6667 47.8334 31.175 47.8334 29.3333C47.8334 28.2183 46.0542 27.2317 43.3226 26.6258V26.6258Z" fill="#00FF94"/>
<path d="M30.335 31.9619C30.3688 33.7073 31.0859 35.3699 32.3322 36.5923C33.5785 37.8147 35.2546 38.4995 37.0004 38.4995C38.7461 38.4995 40.4222 37.8147 41.6686 36.5923C42.9149 35.3699 43.632 33.7073 43.6658 31.9619C43.1081 32.0947 42.5454 32.2059 41.9791 32.2952C41.8654 33.5372 41.2916 34.6918 40.3704 35.5325C39.4492 36.3732 38.2471 36.8393 37 36.8393C35.7528 36.8393 34.5507 36.3732 33.6295 35.5325C32.7083 34.6918 32.1345 33.5372 32.0208 32.2952C31.4548 32.2059 30.8924 32.0947 30.335 31.9619V31.9619Z" fill="#00FF94"/>
<path fill-rule="evenodd" clip-rule="evenodd" d="M31.3307 45.167C30.7341 46.1986 29.7896 46.9841 28.6666 47.3828V50.167C28.6666 50.4587 28.6166 50.7395 28.5249 51.0003H51.9999V46.0003C51.9999 41.4862 42.0066 40.167 36.9999 40.167C35.3276 40.1757 33.6575 40.2909 31.9999 40.512V45.167H31.3307ZM36.9999 46.0003C35.8792 45.9991 34.7619 45.8789 33.6666 45.642V42.0003C34.8891 41.8853 36.0399 41.8337 36.9999 41.8337C38.3882 41.8337 40.1741 41.9412 41.9999 42.1937V45.167C41.9891 45.1712 39.9082 46.0003 36.9999 46.0003ZM45.9191 42.9937C45.4591 42.862 44.9841 42.7437 44.4999 42.6362V45.167H46.1666C46.3876 45.167 46.5995 45.2548 46.7558 45.4111C46.9121 45.5673 46.9999 45.7793 46.9999 46.0003V49.3337H50.3332V46.0003C50.3332 45.5787 50.1266 45.0903 49.3624 44.5195C48.5791 43.9345 47.3932 43.4153 45.9191 42.9937V42.9937Z" fill="#00FF94"/>
<path d="M23.6667 36.8333C23.6667 36.6123 23.5789 36.4004 23.4226 36.2441C23.2663 36.0878 23.0543 36 22.8333 36C22.6123 36 22.4004 36.0878 22.2441 36.2441C22.0878 36.4004 22 36.6123 22 36.8333V42.6667C22 43.5507 22.3512 44.3986 22.9763 45.0237C23.6014 45.6488 24.4493 46 25.3333 46V50.1667C25.3333 50.3877 25.4211 50.5996 25.5774 50.7559C25.7337 50.9122 25.9457 51 26.1667 51C26.3877 51 26.5996 50.9122 26.7559 50.7559C26.9122 50.5996 27 50.3877 27 50.1667V46C27.8841 46 28.7319 45.6488 29.357 45.0237C29.9821 44.3986 30.3333 43.5507 30.3333 42.6667V36.8333C30.3333 36.6123 30.2455 36.4004 30.0893 36.2441C29.933 36.0878 29.721 36 29.5 36C29.279 36 29.067 36.0878 28.9107 36.2441C28.7545 36.4004 28.6667 36.6123 28.6667 36.8333V42.6667C28.6667 43.1087 28.4911 43.5326 28.1785 43.8452C27.866 44.1577 27.442 44.3333 27 44.3333V36.8333C27 36.6123 26.9122 36.4004 26.7559 36.2441C26.5996 36.0878 26.3877 36 26.1667 36C25.9457 36 25.7337 36.0878 25.5774 36.2441C25.4211 36.4004 25.3333 36.6123 25.3333 36.8333V44.3333C24.8913 44.3333 24.4674 44.1577 24.1548 43.8452C23.8423 43.5326 23.6667 43.1087 23.6667 42.6667V36.8333Z" fill="#00FF94"/>
</svg>
