<svg width="58" height="58" viewBox="0 0 58 58" fill="none" xmlns="http://www.w3.org/2000/svg">
<circle cx="28.8056" cy="28.8056" r="28.8056" fill="#F8F9FF"/>
<path fill-rule="evenodd" clip-rule="evenodd" d="M40.1583 28.8056C40.1583 29.182 40.0088 29.5429 39.7426 29.809C39.4765 30.0752 39.1156 30.2247 38.7392 30.2247H22.2975L28.3911 36.3155C28.5231 36.4474 28.6277 36.604 28.6991 36.7764C28.7706 36.9488 28.8073 37.1336 28.8073 37.3202C28.8073 37.5068 28.7706 37.6915 28.6991 37.8639C28.6277 38.0363 28.5231 38.193 28.3911 38.3249C28.2592 38.4568 28.1026 38.5615 27.9302 38.6329C27.7578 38.7043 27.573 38.7411 27.3864 38.7411C27.1998 38.7411 27.0151 38.7043 26.8427 38.6329C26.6703 38.5615 26.5136 38.4568 26.3817 38.3249L17.8671 29.8103C17.735 29.6785 17.6301 29.5219 17.5586 29.3495C17.487 29.1771 17.4502 28.9923 17.4502 28.8056C17.4502 28.6189 17.487 28.4341 17.5586 28.2617C17.6301 28.0893 17.735 27.9327 17.8671 27.8009L26.3817 19.2863C26.6482 19.0198 27.0096 18.8701 27.3864 18.8701C27.7633 18.8701 28.1247 19.0198 28.3911 19.2863C28.6576 19.5528 28.8073 19.9142 28.8073 20.291C28.8073 20.6679 28.6576 21.0293 28.3911 21.2957L22.2975 27.3865H38.7392C39.1156 27.3865 39.4765 27.536 39.7426 27.8021C40.0088 28.0683 40.1583 28.4292 40.1583 28.8056Z" fill="black" fill-opacity="0.3"/>
</svg>
