<svg width="74" height="74" viewBox="0 0 74 74" fill="none" xmlns="http://www.w3.org/2000/svg">
<circle cx="37" cy="37" r="37" fill="#FFDCF7"/>
<path d="M32.0002 39.3333L42.0002 29.3333M32.8335 30.1667H32.8502M41.1668 38.5H41.1835M48.6668 51V24.3333C48.6668 23.4493 48.3156 22.6014 47.6905 21.9763C47.0654 21.3512 46.2176 21 45.3335 21H28.6668C27.7828 21 26.9349 21.3512 26.3098 21.9763C25.6847 22.6014 25.3335 23.4493 25.3335 24.3333V51L31.1668 47.6667L37.0002 51L42.8335 47.6667L48.6668 51ZM33.6668 30.1667C33.6668 30.3877 33.579 30.5996 33.4228 30.7559C33.2665 30.9122 33.0545 31 32.8335 31C32.6125 31 32.4005 30.9122 32.2442 30.7559C32.088 30.5996 32.0002 30.3877 32.0002 30.1667C32.0002 29.9457 32.088 29.7337 32.2442 29.5774C32.4005 29.4211 32.6125 29.3333 32.8335 29.3333C33.0545 29.3333 33.2665 29.4211 33.4228 29.5774C33.579 29.7337 33.6668 29.9457 33.6668 30.1667ZM42.0002 38.5C42.0002 38.721 41.9124 38.933 41.7561 39.0893C41.5998 39.2455 41.3878 39.3333 41.1668 39.3333C40.9458 39.3333 40.7339 39.2455 40.5776 39.0893C40.4213 38.933 40.3335 38.721 40.3335 38.5C40.3335 38.279 40.4213 38.067 40.5776 37.9107C40.7339 37.7545 40.9458 37.6667 41.1668 37.6667C41.3878 37.6667 41.5998 37.7545 41.7561 37.9107C41.9124 38.067 42.0002 38.279 42.0002 38.5Z" stroke="#FF00C7" stroke-width="3.33333" stroke-linecap="round" stroke-linejoin="round"/>
</svg>
