<svg width="74" height="74" viewBox="0 0 74 74" fill="none" xmlns="http://www.w3.org/2000/svg">
<circle cx="37" cy="37" r="37" fill="#FDFFE1"/>
<path d="M51.2834 33.767C51.0501 33.1003 50.4167 32.667 49.6667 32.667H37.6834C36.9167 32.667 36.3001 33.1003 36.0501 33.767L33.6667 40.617L33.6834 49.8003C33.6834 50.4337 34.2001 51.0003 34.8334 51.0003H35.8667C36.5001 51.0003 37.0001 50.367 37.0001 49.7337V47.667H50.3334V49.7337C50.3334 50.367 50.8501 51.0003 51.4834 51.0003H52.5001C53.1334 51.0003 53.6501 50.4337 53.6501 49.8003L53.6667 47.517V40.617L51.2834 33.767V33.767ZM37.6834 34.3337H49.6667L51.3834 39.3337H35.9667L37.6834 34.3337V34.3337ZM37.0001 44.3337C36.0834 44.3337 35.3334 43.5837 35.3334 42.667C35.3334 41.7503 36.0834 41.0003 37.0001 41.0003C37.9167 41.0003 38.6667 41.7503 38.6667 42.667C38.6667 43.5837 37.9167 44.3337 37.0001 44.3337ZM50.3334 44.3337C49.4167 44.3337 48.6667 43.5837 48.6667 42.667C48.6667 41.7503 49.4167 41.0003 50.3334 41.0003C51.2501 41.0003 52.0001 41.7503 52.0001 42.667C52.0001 43.5837 51.2501 44.3337 50.3334 44.3337Z" fill="#EBFF00"/>
<path d="M40.3333 31H41.9999V21H28.6666V29.3333H20.3333V51H21.9999V31H30.3333V22.6667H40.3333V31Z" fill="#EBFF00"/>
<path d="M25.3333 34.333H28.6666V37.6663H25.3333V34.333ZM33.6666 24.333H36.9999V27.6663H33.6666V24.333ZM25.3333 40.9997H28.6666V44.333H25.3333V40.9997ZM25.3333 47.6663H28.6666V50.9997H25.3333V47.6663Z" fill="#EBFF00"/>
</svg>
