<svg width="74" height="74" viewBox="0 0 74 74" fill="none" xmlns="http://www.w3.org/2000/svg">
<circle cx="37" cy="37" r="37" fill="#E2F6FF"/>
<path d="M27 22V27H22V22H27ZM19.5 19.5V29.5H29.5V19.5H19.5ZM39.5 25.75V30.75H34.5V25.75H39.5ZM32 23.25V33.25H42V23.25H32ZM27 37V42H22V37H27ZM19.5 34.5V44.5H29.5V34.5H19.5Z" fill="#00B2FF"/>
<path d="M44.5 29.5V37H37V44.5H29.5V54.5H54.5V29.5H44.5ZM39.5 39.5H44.5V44.5H39.5V39.5ZM37 52H32V47H37V52ZM44.5 52H39.5V47H44.5V52ZM52 52H47V47H52V52ZM52 44.5H47V39.5H52V44.5ZM47 37V32H52V37H47Z" fill="#00B2FF"/>
</svg>
