<svg width="74" height="74" viewBox="0 0 74 74" fill="none" xmlns="http://www.w3.org/2000/svg">
<circle cx="37" cy="37" r="37" fill="#D1D6FF"/>
<path d="M53.6667 35.3335C53.6714 34.1587 53.3656 33.0036 52.7802 31.9851C52.1948 30.9666 51.3507 30.1208 50.3334 29.5335C50.3585 29.2451 50.3585 28.9551 50.3334 28.6668C50.3334 27.3407 49.8066 26.0689 48.8689 25.1313C47.9312 24.1936 46.6595 23.6668 45.3334 23.6668H45.0334C44.7558 22.8973 44.2937 22.2077 43.6876 21.6584C43.0815 21.1091 42.3499 20.7169 41.5569 20.5161C40.7639 20.3154 39.9337 20.3123 39.1393 20.5071C38.3448 20.7019 37.6103 21.0887 37.0001 21.6335C36.3899 21.0887 35.6553 20.7019 34.8608 20.5071C34.0664 20.3123 33.2362 20.3154 32.4432 20.5161C31.6503 20.7169 30.9186 21.1091 30.3125 21.6584C29.7064 22.2077 29.2443 22.8973 28.9667 23.6668H28.6667C27.3406 23.6668 26.0689 24.1936 25.1312 25.1313C24.1935 26.0689 23.6667 27.3407 23.6667 28.6668C23.6416 28.9551 23.6416 29.2451 23.6667 29.5335C22.7208 30.0681 21.9199 30.8259 21.3338 31.7408C20.7476 32.6556 20.394 33.6999 20.3036 34.7827C20.2132 35.8655 20.3889 36.9539 20.8153 37.9533C21.2417 38.9527 21.9059 39.8327 22.7501 40.5168C22.2038 41.5356 21.9319 42.6789 21.961 43.8345C21.99 44.9901 22.319 46.1183 22.9158 47.1083C23.5125 48.0983 24.3564 48.9162 25.3646 49.4816C26.3728 50.0471 27.5108 50.3406 28.6667 50.3335H28.9667C29.2443 51.1029 29.7064 51.7926 30.3125 52.3419C30.9186 52.8912 31.6503 53.2834 32.4432 53.4841C33.2362 53.6848 34.0664 53.6879 34.8608 53.4931C35.6553 53.2983 36.3899 52.9116 37.0001 52.3668C37.6103 52.9116 38.3448 53.2983 39.1393 53.4931C39.9337 53.6879 40.7639 53.6848 41.5569 53.4841C42.3499 53.2834 43.0815 52.8912 43.6876 52.3419C44.2937 51.7926 44.7558 51.1029 45.0334 50.3335H45.3334C46.4823 50.3262 47.6098 50.0222 48.6065 49.4508C49.6033 48.8795 50.4355 48.0602 51.0224 47.0725C51.6093 46.0849 51.931 44.9623 51.9563 43.8136C51.9816 42.665 51.7096 41.5293 51.1667 40.5168C51.9441 39.8944 52.5722 39.1057 53.0048 38.2088C53.4374 37.3118 53.6636 36.3293 53.6667 35.3335ZM35.3334 31.2501C34.9704 31.0425 34.5914 30.8642 34.2001 30.7168C33.7801 30.5753 33.3212 30.6065 32.9243 30.8034C32.5273 31.0003 32.2248 31.3469 32.0834 31.7668C31.9419 32.1867 31.9731 32.6456 32.17 33.0426C32.3669 33.4395 32.7135 33.742 33.1334 33.8835C33.775 34.1154 34.3299 34.5386 34.7233 35.096C35.1167 35.6533 35.3297 36.3179 35.3334 37.0001V39.5835C34.9704 39.3758 34.5914 39.1975 34.2001 39.0501C33.7801 38.9087 33.3212 38.9398 32.9243 39.1368C32.5273 39.3337 32.2248 39.6802 32.0834 40.1001C31.9419 40.5201 31.9731 40.979 32.17 41.3759C32.3669 41.7729 32.7135 42.0753 33.1334 42.2168C33.775 42.4487 34.3299 42.8719 34.7233 43.4293C35.1167 43.9866 35.3297 44.6513 35.3334 45.3335V48.6668C35.3334 49.1088 35.1578 49.5327 34.8452 49.8453C34.5327 50.1579 34.1087 50.3335 33.6667 50.3335C33.3443 50.3314 33.0294 50.2358 32.7602 50.0583C32.491 49.8808 32.279 49.629 32.1501 49.3335C32.4295 49.1695 32.6969 48.9857 32.9501 48.7835C33.1186 48.6434 33.2579 48.4715 33.36 48.2776C33.4621 48.0837 33.525 47.8716 33.5451 47.6533C33.5652 47.4351 33.5421 47.2151 33.4772 47.0058C33.4123 46.7965 33.3068 46.602 33.1667 46.4335C33.0266 46.2649 32.8547 46.1256 32.6608 46.0235C32.4669 45.9215 32.2548 45.8585 32.0366 45.8384C31.8184 45.8183 31.5983 45.8414 31.389 45.9063C31.1797 45.9712 30.9853 46.0767 30.8167 46.2168C30.2149 46.7234 29.4534 47.0009 28.6667 47.0001C27.7827 47.0001 26.9348 46.6489 26.3097 46.0238C25.6846 45.3987 25.3334 44.5509 25.3334 43.6668C25.3414 43.0395 25.5262 42.4271 25.8667 41.9001C26.2408 41.9672 26.62 42.0007 27.0001 42.0001C27.4421 42.0001 27.866 41.8245 28.1786 41.512C28.4911 41.1994 28.6667 40.7755 28.6667 40.3335C28.6667 39.8914 28.4911 39.4675 28.1786 39.155C27.866 38.8424 27.4421 38.6668 27.0001 38.6668C26.6064 38.6691 26.2159 38.5955 25.8501 38.4501C25.2506 38.2339 24.7257 37.8505 24.3375 37.3451C23.9493 36.8398 23.7141 36.2338 23.6598 35.5989C23.6054 34.964 23.7342 34.3268 24.0308 33.7629C24.3274 33.1989 24.7794 32.7318 25.3334 32.4168C25.5702 32.6347 25.8269 32.83 26.1001 33.0001C26.4846 33.2211 26.9412 33.2803 27.3694 33.1647C27.7976 33.049 28.1624 32.768 28.3834 32.3835C28.6044 31.9989 28.6636 31.5423 28.5479 31.1141C28.4323 30.6859 28.1513 30.3211 27.7667 30.1001C27.5321 29.9707 27.3364 29.7808 27.2001 29.5501C27.046 29.2825 26.9763 28.9747 27.0001 28.6668C27.0001 28.2248 27.1756 27.8008 27.4882 27.4883C27.8008 27.1757 28.2247 27.0001 28.6667 27.0001C28.7828 26.9839 28.9006 26.9839 29.0167 27.0001C29.105 27.2679 29.2107 27.5296 29.3334 27.7835C29.4423 27.9744 29.5879 28.142 29.7618 28.2765C29.9357 28.4109 30.1345 28.5097 30.3467 28.567C30.5589 28.6243 30.7804 28.6391 30.9984 28.6104C31.2164 28.5818 31.4265 28.5103 31.6167 28.4001C31.9862 28.1778 32.2552 27.8209 32.3671 27.4045C32.479 26.988 32.4251 26.5444 32.2167 26.1668C32.0769 25.9111 32.0024 25.6249 32.0001 25.3335C32.0001 24.8914 32.1756 24.4675 32.4882 24.155C32.8008 23.8424 33.2247 23.6668 33.6667 23.6668C34.1087 23.6668 34.5327 23.8424 34.8452 24.155C35.1578 24.4675 35.3334 24.8914 35.3334 25.3335V31.2501ZM48.1501 38.4501C47.7842 38.5955 47.3937 38.6691 47.0001 38.6668C46.558 38.6668 46.1341 38.8424 45.8215 39.155C45.509 39.4675 45.3334 39.8914 45.3334 40.3335C45.3334 40.7755 45.509 41.1994 45.8215 41.512C46.1341 41.8245 46.558 42.0001 47.0001 42.0001C47.3801 42.0007 47.7594 41.9672 48.1334 41.9001C48.4739 42.4271 48.6587 43.0395 48.6667 43.6668C48.6667 44.5509 48.3155 45.3987 47.6904 46.0238C47.0653 46.6489 46.2174 47.0001 45.3334 47.0001C44.5467 47.0009 43.7852 46.7234 43.1834 46.2168C42.843 45.9339 42.4042 45.7978 41.9635 45.8384C41.5228 45.8791 41.1163 46.0931 40.8334 46.4335C40.5505 46.7738 40.4144 47.2126 40.455 47.6533C40.4957 48.094 40.7097 48.5006 41.0501 48.7835C41.3032 48.9857 41.5706 49.1695 41.8501 49.3335C41.7211 49.629 41.5091 49.8808 41.2399 50.0583C40.9707 50.2358 40.6558 50.3314 40.3334 50.3335C39.8914 50.3335 39.4674 50.1579 39.1549 49.8453C38.8423 49.5327 38.6667 49.1088 38.6667 48.6668V45.3335C38.6704 44.6513 38.8834 43.9866 39.2768 43.4293C39.6702 42.8719 40.2252 42.4487 40.8667 42.2168C41.2866 42.0753 41.6332 41.7729 41.8301 41.3759C42.027 40.979 42.0582 40.5201 41.9167 40.1001C41.7753 39.6802 41.4728 39.3337 41.0758 39.1368C40.6789 38.9398 40.22 38.9087 39.8001 39.0501C39.4087 39.1975 39.0297 39.3758 38.6667 39.5835V37.0001C38.6704 36.3179 38.8834 35.6533 39.2768 35.096C39.6702 34.5386 40.2252 34.1154 40.8667 33.8835C41.0746 33.8134 41.2667 33.7031 41.432 33.5588C41.5973 33.4146 41.7326 33.2391 41.8301 33.0426C41.9276 32.846 41.9854 32.6322 42.0003 32.4133C42.0152 32.1944 41.9868 31.9747 41.9167 31.7668C41.8467 31.5589 41.7364 31.3668 41.5921 31.2015C41.4478 31.0362 41.2724 30.9009 41.0758 30.8034C40.8793 30.7059 40.6655 30.6481 40.4466 30.6332C40.2277 30.6184 40.008 30.6468 39.8001 30.7168C39.4087 30.8642 39.0297 31.0425 38.6667 31.2501V25.3335C38.6667 24.8914 38.8423 24.4675 39.1549 24.155C39.4674 23.8424 39.8914 23.6668 40.3334 23.6668C40.7754 23.6668 41.1993 23.8424 41.5119 24.155C41.8245 24.4675 42.0001 24.8914 42.0001 25.3335C41.9977 25.6249 41.9232 25.9111 41.7834 26.1668C41.6725 26.356 41.6001 26.5653 41.5702 26.7826C41.5403 26.9998 41.5537 27.2209 41.6094 27.433C41.6651 27.6451 41.7622 27.8442 41.895 28.0187C42.0278 28.1933 42.1938 28.3399 42.3834 28.4501C42.5736 28.5603 42.7838 28.6318 43.0017 28.6604C43.2197 28.6891 43.4412 28.6743 43.6534 28.617C43.8656 28.5597 44.0644 28.4609 44.2383 28.3265C44.4122 28.192 44.5578 28.0244 44.6667 27.8335C44.7915 27.5634 44.8973 27.2849 44.9834 27.0001C45.0995 26.9839 45.2173 26.9839 45.3334 27.0001C45.7754 27.0001 46.1993 27.1757 46.5119 27.4883C46.8245 27.8008 47.0001 28.2248 47.0001 28.6668C46.9975 28.9935 46.899 29.3123 46.7167 29.5835C46.5804 29.7997 46.3911 29.9776 46.1667 30.1001C45.7822 30.3211 45.5011 30.6859 45.3855 31.1141C45.2698 31.5423 45.329 31.9989 45.5501 32.3835C45.7711 32.768 46.1358 33.049 46.564 33.1647C46.9922 33.2803 47.4488 33.2211 47.8334 33.0001C48.1326 32.8383 48.4122 32.6426 48.6667 32.4168C49.2226 32.7262 49.6782 33.1882 49.98 33.7482C50.2817 34.3082 50.4169 34.9429 50.3696 35.5773C50.3223 36.2116 50.0945 36.8192 49.713 37.3283C49.3315 37.8373 48.8123 38.2266 48.2167 38.4501H48.1501Z" fill="#4E5DEC"/>
</svg>
