<svg width="59" height="58" viewBox="0 0 59 58" fill="none" xmlns="http://www.w3.org/2000/svg">
<circle cx="29.4166" cy="28.8058" r="28.8056" transform="rotate(-180 29.4166 28.8058)" fill="#414042"/>
<path fill-rule="evenodd" clip-rule="evenodd" d="M18.0639 28.8057C18.0639 28.4294 18.2134 28.0684 18.4795 27.8023C18.7457 27.5362 19.1066 27.3866 19.483 27.3866H35.9246L29.831 21.2959C29.6991 21.1639 29.5944 21.0073 29.523 20.8349C29.4516 20.6625 29.4149 20.4777 29.4149 20.2912C29.4149 20.1046 29.4516 19.9198 29.523 19.7474C29.5944 19.575 29.6991 19.4184 29.831 19.2864C29.963 19.1545 30.1196 19.0498 30.292 18.9784C30.4644 18.907 30.6492 18.8703 30.8358 18.8703C31.0223 18.8703 31.2071 18.907 31.3795 18.9784C31.5519 19.0498 31.7085 19.1545 31.8405 19.2864L40.3551 27.801C40.4872 27.9328 40.5921 28.0894 40.6636 28.2618C40.7351 28.4343 40.772 28.6191 40.772 28.8057C40.772 28.9924 40.7351 29.1772 40.6636 29.3496C40.5921 29.522 40.4872 29.6786 40.3551 29.8105L31.8405 38.325C31.574 38.5915 31.2126 38.7412 30.8358 38.7412C30.4589 38.7412 30.0975 38.5915 29.831 38.325C29.5646 38.0586 29.4149 37.6972 29.4149 37.3203C29.4149 36.9435 29.5646 36.5821 29.831 36.3156L35.9246 30.2248H19.483C19.1066 30.2248 18.7457 30.0753 18.4795 29.8092C18.2134 29.5431 18.0639 29.1821 18.0639 28.8057Z" fill="white"/>
</svg>
