<svg width="22" height="22" viewBox="0 0 22 22" fill="none" xmlns="http://www.w3.org/2000/svg">
<path d="M6.44766 6.85376C6.23897 6.34188 5.78484 5.98817 5.25 5.98817C4.71647 5.98817 4.26234 6.34057 4.05366 6.85245C4.02281 6.91479 3.94275 6.90101 3.93684 6.8321V6.72842C3.93684 5.88448 4.56881 5.19935 5.33006 5.25513C5.98041 5.29648 6.50803 5.88448 6.55725 6.61029C6.56381 6.68642 6.56381 6.75598 6.55725 6.8321C6.55069 6.90101 6.47194 6.91479 6.447 6.85245L6.44766 6.85376ZM6.89062 9.59098C5.52366 9.59098 4.33519 8.94129 3.72291 7.9871C3.60872 7.80467 3.28125 7.8716 3.28125 8.07832C3.28125 8.18135 3.28781 8.28504 3.30291 8.39398C3.47353 9.88301 4.91137 11.0616 6.66291 11.1529C8.75634 11.2624 10.5 9.84626 10.5 8.07832V8.07176C10.5 7.8657 10.1725 7.80467 10.0583 7.9812C9.44672 8.94129 8.25759 9.59098 6.89062 9.59098V9.59098ZM8.52863 5.98882C9.0615 5.98882 9.51431 6.34123 9.723 6.8531C9.74728 6.91545 9.83325 6.90167 9.83916 6.83276C9.84572 6.7632 9.84572 6.68707 9.83916 6.61095C9.78994 5.88513 9.26362 5.29713 8.61459 5.25579C7.84941 5.20001 7.21875 5.88513 7.21875 6.72907V6.83276C7.22531 6.90167 7.30406 6.91545 7.33491 6.8531C7.54359 6.34123 7.99641 5.98882 8.52928 5.98882H8.52863ZM14.1094 15.5097C15.3517 15.5097 16.4325 16.225 16.9897 17.2744C17.0927 17.4745 17.3906 17.401 17.3906 17.1739C17.3906 17.0604 17.3841 16.9469 17.3709 16.8261C17.2161 15.1888 15.9088 13.8927 14.3167 13.7916C12.4136 13.6715 10.8281 15.2288 10.8281 17.1739V17.1805C10.8281 17.4076 11.1261 17.4745 11.2291 17.2809C11.7863 16.2244 12.8664 15.509 14.1094 15.509V15.5097ZM13.6598 13.4163C13.4512 12.9044 12.997 12.5513 12.4635 12.5513C11.9293 12.5513 11.4752 12.9044 11.2731 13.4156C11.2422 13.4779 11.1622 13.4642 11.1562 13.3953V13.2916C11.1562 12.4476 11.7882 11.7625 12.5495 11.8183C13.1998 11.8596 13.7274 12.4476 13.7767 13.1741C13.7832 13.2496 13.7832 13.3257 13.7767 13.3953C13.7701 13.4642 13.6848 13.4779 13.6598 13.4156V13.4163ZM15.7585 12.5513C16.2921 12.5513 16.7462 12.9044 16.9549 13.4156C16.9798 13.4779 17.0651 13.4642 17.0717 13.3953C17.0779 13.3215 17.0779 13.2473 17.0717 13.1734C17.0225 12.4476 16.4942 11.8596 15.8445 11.8183C15.0832 11.7625 14.4513 12.4476 14.4513 13.2916V13.3953C14.4578 13.4642 14.5366 13.4779 14.5674 13.4156C14.7702 12.9037 15.2243 12.5513 15.7585 12.5513Z" fill="#699BF7"/>
<path d="M10.121 0.214192L8.96797 0.703099C8.31301 0.980772 7.60889 1.12387 6.8975 1.12387C6.18611 1.12387 5.48199 0.980772 4.82703 0.703099L4.8244 0.701786L3.66743 0.214192L3.66612 0.21288C1.73806 -0.602183 -0.31469 1.04435 0.0403414 3.09382L1.19337 9.66222V9.66419C1.32837 10.4275 1.61538 11.1558 2.03736 11.806C2.45934 12.4562 3.00768 13.0149 3.64981 13.4491C4.29195 13.8832 5.01478 14.1839 5.77538 14.3332C6.53598 14.4825 7.31883 14.4774 8.07744 14.3183L8.41212 16.2247L8.41278 16.2267C8.64983 17.5654 9.35081 18.7779 10.3927 19.6513C11.4346 20.5247 12.7508 21.0032 14.1103 21.0029C15.4699 21.0032 16.7861 20.5247 17.828 19.6513C18.8699 18.7779 19.5709 17.5654 19.8079 16.2267L20.9609 9.65894V9.65632C21.3173 7.60685 19.2626 5.96032 17.3345 6.77669L16.1815 7.26626C15.1636 7.69767 14.0364 7.80046 12.9573 7.56026L13.7396 3.10169L13.7402 3.09841C14.1077 1.04041 12.0451 -0.60087 10.121 0.214192V0.214192ZM1.33381 2.86938C1.15465 1.83907 2.18825 1.01285 3.15556 1.42235L4.3145 1.91125C5.13155 2.25781 6.00999 2.4364 6.8975 2.4364C7.78501 2.4364 8.66344 2.25781 9.4805 1.91125L10.6329 1.42235C11.6002 1.01285 12.6331 1.83841 12.4481 2.86938L11.295 9.4345V9.43516C11.1121 10.4702 10.5703 11.4076 9.76493 12.0829C8.95953 12.7582 7.94198 13.1282 6.89093 13.1279C5.83985 13.1281 4.82227 12.7581 4.01679 12.0828C3.21132 11.4075 2.66941 10.4702 2.48619 9.43516L1.33381 2.86938ZM9.21865 13.2263C9.92624 12.866 10.5405 12.3464 11.0131 11.7084C11.4857 11.0703 11.8037 10.3312 11.9421 9.54935V9.54869L12.093 8.68507C12.5112 8.8188 12.9416 8.91048 13.378 8.95872C14.4962 9.08341 15.6401 8.92197 16.694 8.47441L17.8464 7.9855C18.8137 7.576 19.8473 8.40157 19.6681 9.43188L18.5157 15.9977C18.3325 17.0328 17.7905 17.9702 16.9849 18.6455C16.1793 19.3208 15.1615 19.6907 14.1103 19.6904C13.0591 19.6907 12.0414 19.3208 11.2358 18.6455C10.4302 17.9702 9.88818 17.0328 9.70493 15.9977L9.21865 13.2263V13.2263Z" fill="#699BF7"/>
</svg>
