<svg width="74" height="74" viewBox="0 0 74 74" fill="none" xmlns="http://www.w3.org/2000/svg">
<circle cx="37" cy="37" r="37" fill="#ECFFD9"/>
<path fill-rule="evenodd" clip-rule="evenodd" d="M51.9499 23.2145L51.1274 23.0836L50.9115 22.2786L52.1524 21.9453L51.9507 23.2145H51.9499ZM40.9332 34.7395L40.224 35.1761L40.2224 35.1745L40.2199 35.1703L40.2115 35.157L40.1832 35.1095C40.1599 35.0695 40.1249 35.0111 40.0832 34.937C39.9664 34.7329 39.8539 34.5265 39.7457 34.3178C39.4032 33.6618 39.1042 32.9839 38.8507 32.2886C38.569 31.502 38.3274 30.6011 38.2899 29.7295C38.2532 28.8611 38.4149 27.9186 39.0615 27.1795C39.6424 26.5161 40.7374 25.9053 41.8882 25.377C43.0807 24.8278 44.484 24.3011 45.8132 23.8453C47.4596 23.283 49.1226 22.7706 50.7999 22.3086L50.8832 22.2853L50.9124 22.277L51.129 23.0828L51.9515 23.2136L51.9465 23.2445L51.9324 23.3328C51.8492 23.844 51.7619 24.3546 51.6707 24.8645C51.4487 26.1183 51.2064 27.3685 50.944 28.6145C50.6474 30.0153 50.3024 31.4836 49.9365 32.7128C49.7742 33.275 49.5831 33.8285 49.364 34.3711C49.174 34.8295 48.949 35.2745 48.6757 35.5878C48.0907 36.2561 47.1799 36.4653 46.384 36.5186C45.554 36.5745 44.634 36.4736 43.8065 36.327C43.0685 36.194 42.3376 36.0244 41.6165 35.8186C41.3215 35.7355 41.0281 35.6466 40.7365 35.552L40.684 35.5336L40.6699 35.5286L40.6657 35.5278H40.664L40.934 34.7386L40.9332 34.7395ZM40.9332 34.7395L40.224 35.1761L40.3807 35.4303L40.664 35.5278L40.9332 34.7395ZM41.4932 34.0453C42.3464 34.3116 43.2149 34.5259 44.094 34.687C44.864 34.8228 45.634 34.8995 46.2724 34.8561C46.9465 34.8111 47.2849 34.6461 47.4207 34.4911C47.5074 34.3911 47.649 34.1545 47.824 33.7328C48.0208 33.2439 48.1924 32.7452 48.3382 32.2386C48.6857 31.072 49.0199 29.6528 49.3132 28.2703C49.5947 26.9328 49.8525 25.5903 50.0865 24.2436L49.829 24.3186C48.9049 24.5911 47.6565 24.9753 46.354 25.422C45.049 25.8695 43.7049 26.3753 42.584 26.8911C41.4207 27.4261 40.6357 27.912 40.3157 28.2778C40.0599 28.5695 39.9282 29.0186 39.9557 29.6578C39.9824 30.2936 40.1649 31.0161 40.4199 31.7253C40.7118 32.5274 41.0708 33.3035 41.4932 34.0453V34.0453ZM25.5524 25.312L25.3365 26.117L24.5132 26.2478L24.3115 24.9795L25.5532 25.3128L25.5524 25.312ZM33.6207 35.5895L34.3299 36.0253L34.3315 36.0236L34.3332 36.0203L34.3399 36.0095L34.364 35.9695C34.4897 35.7554 34.6097 35.5381 34.724 35.3178C34.944 34.8945 35.2249 34.3036 35.4599 33.6503C35.6915 33.0036 35.8932 32.2545 35.924 31.5245C35.9557 30.797 35.8207 29.9853 35.259 29.3436C34.7624 28.7753 33.8432 28.2686 32.9099 27.8386C31.934 27.3895 30.7882 26.9595 29.7057 26.5886C28.365 26.1307 27.0107 25.7133 25.6449 25.337L25.5765 25.3186L25.5524 25.312L25.3365 26.117L24.5132 26.2478L24.5174 26.2728L24.529 26.3453L24.574 26.617C24.7989 27.9649 25.052 29.308 25.3332 30.6453C25.5749 31.7853 25.8565 32.9828 26.1549 33.987C26.3049 34.4886 26.4615 34.9561 26.6257 35.3503C26.7815 35.7253 26.9724 36.1078 27.2124 36.3811C27.729 36.9728 28.5232 37.1478 29.1807 37.1911C29.874 37.2378 30.6349 37.1536 31.314 37.0345C32.1668 36.8814 33.0077 36.6686 33.8307 36.3978L33.8732 36.3836L33.8857 36.3795L33.8899 36.3778L33.6207 35.5895V35.5895ZM33.6207 35.5895L34.3299 36.0253L34.1732 36.2803L33.8899 36.3778L33.6207 35.5895ZM33.0599 34.8945C33.3855 34.3159 33.6633 33.7116 33.8907 33.0878C34.0949 32.5186 34.2382 31.9478 34.259 31.4528C34.2807 30.9545 34.1757 30.6361 34.0049 30.4403C33.769 30.172 33.1607 29.7886 32.2132 29.3528C31.3099 28.937 30.2232 28.5278 29.1649 28.1653C28.2429 27.8506 27.3144 27.5555 26.3799 27.2803L26.3832 27.3011C26.5249 28.1011 26.7265 29.1811 26.964 30.3003C27.2015 31.422 27.4724 32.5695 27.7524 33.512C27.8932 33.9836 28.0315 34.3911 28.1649 34.7111C28.3065 35.0503 28.4132 35.2228 28.4665 35.2845C28.5349 35.362 28.7557 35.4928 29.2924 35.5286C29.7932 35.562 30.4049 35.502 31.0249 35.3928C31.7129 35.2688 32.3925 35.1021 33.0599 34.8936V34.8945ZM31.2349 42.8395C31.0232 42.8511 30.9199 42.8811 30.8932 42.8928C30.5157 43.0636 29.369 43.4636 28.379 43.8011C27.8707 43.9753 27.3832 44.1386 27.0232 44.2595L26.9999 44.2678V48.7703C27.1465 48.7636 27.304 48.7578 27.4649 48.752C28.1549 48.727 28.9757 48.702 29.3315 48.717C30.8249 48.7761 31.9465 49.1295 32.9849 49.457L33.0074 49.4645C33.9807 49.7711 34.8824 50.0528 36.0632 50.142C36.3965 50.167 36.7207 50.1995 37.0232 50.2295H37.0274C38.189 50.3461 38.954 50.4045 39.5465 50.1895C40.0074 50.022 41.6949 49.2395 43.3965 48.3836C44.2382 47.9603 45.0632 47.5295 45.719 47.1603C46.0482 46.9753 46.3274 46.8103 46.5415 46.672C46.6482 46.6028 46.7332 46.5445 46.7982 46.497C46.8237 46.4782 46.8487 46.4588 46.8732 46.4386L46.8965 46.4186C46.9799 46.3345 47.0682 46.0411 46.9249 45.7653C46.8574 45.6363 46.7459 45.5358 46.6107 45.482C46.444 45.4095 46.1607 45.3536 45.7107 45.4278C44.6957 45.5945 43.4832 46.0828 42.2724 46.5753L42.2557 46.5828C41.6607 46.8245 41.064 47.067 40.5349 47.2436C40.0265 47.4128 39.4624 47.5645 38.9707 47.5353C38.2957 47.4936 37.1115 47.3186 36.1349 47.1603C35.5736 47.0696 35.013 46.9746 34.4532 46.8753L34.3449 46.8561L34.3065 46.8486L34.4649 45.1953L38.2732 45.2411H38.2815C38.326 45.2363 38.37 45.228 38.4132 45.2161C38.5449 45.1828 38.7707 45.1003 39.0549 44.8995C39.1424 44.837 39.2574 44.722 39.3649 44.5678C39.4065 44.5074 39.4443 44.4445 39.4782 44.3795C39.0139 44.3499 38.5525 44.2847 38.0982 44.1845C37.8508 44.1306 37.6054 44.0681 37.3624 43.997L37.334 43.9886L32.6699 42.9503L32.6257 42.9428C32.3774 42.9016 32.1274 42.871 31.8765 42.8511C31.6631 42.8334 31.4488 42.8295 31.2349 42.8395V42.8395ZM32.8332 42.1336L32.984 41.3145L32.999 41.317L37.764 42.377L37.799 42.3878L37.8057 42.3903L37.8374 42.3995L37.969 42.437C38.0849 42.4686 38.2515 42.512 38.4499 42.5553C38.8549 42.6428 39.3615 42.7236 39.8299 42.7236C40.299 42.7236 40.809 42.8986 41.084 43.397C41.319 43.8236 41.2607 44.2853 41.1782 44.5903C41.1016 44.86 40.9874 45.1175 40.839 45.3553C41.0924 45.2553 41.3615 45.147 41.644 45.032L41.6957 45.0103C42.844 44.5436 44.2207 43.9836 45.4399 43.7828C46.8565 43.5511 47.919 44.0595 48.4049 44.9995C48.8332 45.8286 48.7382 46.922 48.084 47.587C47.9199 47.7536 47.6757 47.9228 47.4424 48.0736C47.1452 48.2617 46.8429 48.4415 46.5357 48.6128C45.8482 48.9995 44.9974 49.4436 44.144 49.8728C42.459 50.7203 40.684 51.5495 40.114 51.7561C39.1257 52.1145 37.9824 52.0003 36.9665 51.8986L36.8607 51.8878C36.5533 51.8563 36.2455 51.8285 35.9374 51.8045C34.554 51.6995 33.494 51.3653 32.5257 51.0603L32.5049 51.0536C31.4632 50.7253 30.5249 50.4328 29.2649 50.382C28.9882 50.3711 28.2432 50.3911 27.5249 50.4178C27.1203 50.4325 26.7159 50.4489 26.3115 50.467L26.204 50.472L25.3324 50.512V43.0653L26.0632 42.8228C26.6562 42.6257 27.2484 42.4263 27.8399 42.2245C28.8765 41.8703 29.9215 41.5028 30.2065 41.3745C30.5124 41.2361 30.8599 41.1911 31.1382 41.1745C31.434 41.1578 31.7382 41.1703 32.004 41.1903C32.324 41.2154 32.6427 41.2551 32.959 41.3095L32.9765 41.3128H32.9815L32.9832 41.3136H32.9849L32.8332 42.1336Z" fill="#05FF00"/>
<path fill-rule="evenodd" clip-rule="evenodd" d="M46.2915 28.0339C46.3747 28.105 46.4431 28.1919 46.4927 28.2894C46.5423 28.387 46.5722 28.4933 46.5807 28.6024C46.5893 28.7115 46.5762 28.8213 46.5423 28.9253C46.5084 29.0294 46.4543 29.1257 46.3832 29.2089C43.899 32.1072 40.8065 36.3547 39.4415 39.8072C39.4013 39.909 39.3413 40.0019 39.2652 40.0805C39.189 40.1591 39.0981 40.2219 38.9977 40.2654C38.8973 40.3089 38.7892 40.3322 38.6798 40.3339C38.5704 40.3357 38.4617 40.3159 38.3599 40.2756C38.2581 40.2353 38.1653 40.1754 38.0866 40.0992C38.008 40.0231 37.9452 39.9322 37.9017 39.8317C37.8582 39.7313 37.8349 39.6233 37.8332 39.5138C37.8314 39.4044 37.8513 39.2957 37.8915 39.1939C39.3607 35.4781 42.6007 31.0606 45.1165 28.1248C45.2604 27.957 45.4651 27.8533 45.6854 27.8364C45.9058 27.8195 46.1238 27.8909 46.2915 28.0348V28.0339ZM29.8165 30.7072C29.7306 30.7751 29.6589 30.8592 29.6055 30.9547C29.552 31.0503 29.518 31.1554 29.5052 31.2642C29.4924 31.3729 29.5012 31.4831 29.531 31.5884C29.5609 31.6938 29.6112 31.7922 29.679 31.8781C31.5474 34.2489 33.5874 37.2831 34.5557 39.7997C34.6388 40.0006 34.7972 40.161 34.9969 40.2468C35.1967 40.3326 35.4221 40.3369 35.625 40.2588C35.8279 40.1807 35.9922 40.0265 36.083 39.8289C36.1737 39.6314 36.1837 39.4062 36.1107 39.2014C35.0515 36.4481 32.8874 33.2556 30.9874 30.8464C30.8507 30.6729 30.6506 30.5607 30.4312 30.5346C30.2118 30.5085 29.991 30.5706 29.8174 30.7072H29.8165Z" fill="#05FF00"/>
<path d="M22 41.167H27V52.0003H22V41.167Z" fill="#05FF00"/>
</svg>
