<svg width="74" height="74" viewBox="0 0 74 74" fill="none" xmlns="http://www.w3.org/2000/svg">
<circle cx="37" cy="37" r="37" fill="#ECFFD9"/>
<g clip-path="url(#clip0_1348_1610)">
<path d="M57 40.9996V55.9996H37V40.9996H42V35.9996H52V40.9996H57ZM44.5 40.9996H49.5V38.4996H44.5V40.9996ZM54.5 48.4996H52V50.9996H49.5V48.4996H44.5V50.9996H42V48.4996H39.5V53.4996H54.5V48.4996ZM54.5 43.4996H39.5V45.9996H54.5V43.4996ZM47.5664 33.4996C46.8633 32.7054 46.0299 32.0934 45.0664 31.6637C44.1029 31.234 43.0807 31.0127 42 30.9996C40.9583 30.9996 39.9883 31.1949 39.0898 31.5856C38.1914 31.9762 37.3971 32.5101 36.707 33.1871C36.0169 33.8642 35.4766 34.665 35.0859 35.5895C34.6953 36.514 34.5 37.484 34.5 38.4996C34.5 39.6976 34.2331 40.8239 33.6992 41.8785C33.1654 42.9332 32.4102 43.8186 31.4336 44.5348C32.0195 44.8343 32.5664 45.1793 33.0742 45.5699C33.582 45.9606 34.0573 46.4033 34.5 46.8981V53.4996C34.5 52.471 34.3047 51.5009 33.9141 50.5895C33.5234 49.678 32.9896 48.8837 32.3125 48.2067C31.6354 47.5296 30.8346 46.9892 29.9102 46.5856C28.9857 46.1819 28.0156 45.9866 27 45.9996C25.9583 45.9996 24.9883 46.1949 24.0898 46.5856C23.1914 46.9762 22.3971 47.5101 21.707 48.1871C21.0169 48.8642 20.4766 49.665 20.0859 50.5895C19.6953 51.514 19.5 52.484 19.5 53.4996H17C17 52.5491 17.1302 51.6311 17.3906 50.7457C17.651 49.8603 18.0221 49.0205 18.5039 48.2262C18.9857 47.4319 19.5716 46.7288 20.2617 46.1168C20.9518 45.5048 21.7201 44.9775 22.5664 44.5348C21.6029 43.8317 20.8542 42.9528 20.3203 41.8981C19.7865 40.8434 19.513 39.7106 19.5 38.4996C19.5 37.471 19.6953 36.5009 20.0859 35.5895C20.4766 34.678 21.0104 33.8837 21.6875 33.2067C22.3646 32.5296 23.1589 31.9892 24.0703 31.5856C24.9818 31.1819 25.9583 30.9866 27 30.9996C28.1979 30.9996 29.3242 31.2666 30.3789 31.8004C31.4336 32.3343 32.319 33.0895 33.0352 34.066C33.5299 33.0895 34.1615 32.2171 34.9297 31.4489C35.6979 30.6806 36.5768 30.0426 37.5664 29.5348C36.6029 28.8317 35.8542 27.9528 35.3203 26.8981C34.7865 25.8434 34.513 24.7106 34.5 23.4996C34.5 22.471 34.6953 21.5009 35.0859 20.5895C35.4766 19.678 36.0104 18.8837 36.6875 18.2067C37.3646 17.5296 38.1589 16.9892 39.0703 16.5856C39.9818 16.1819 40.9583 15.9866 42 15.9996C43.0286 15.9996 43.9987 16.1949 44.9102 16.5856C45.8216 16.9762 46.6159 17.5101 47.293 18.1871C47.9701 18.8642 48.5104 19.665 48.9141 20.5895C49.3177 21.514 49.513 22.484 49.5 23.4996C49.5 24.6976 49.2331 25.8239 48.6992 26.8785C48.1654 27.9332 47.4102 28.8186 46.4336 29.5348C47.319 29.9775 48.1198 30.5309 48.8359 31.1949C49.5521 31.859 50.1576 32.6272 50.6523 33.4996H47.5664ZM27 43.4996C27.6901 43.4996 28.3346 43.3694 28.9336 43.109C29.5326 42.8486 30.0664 42.4905 30.5352 42.0348C31.0039 41.5791 31.362 41.0517 31.6094 40.4528C31.8568 39.8538 31.987 39.2028 32 38.4996C32 37.8095 31.8698 37.165 31.6094 36.566C31.349 35.9671 30.9909 35.4332 30.5352 34.9645C30.0794 34.4957 29.5521 34.1377 28.9531 33.8903C28.3542 33.6429 27.7031 33.5127 27 33.4996C26.3099 33.4996 25.6654 33.6298 25.0664 33.8903C24.4674 34.1507 23.9336 34.5087 23.4648 34.9645C22.9961 35.4202 22.638 35.9476 22.3906 36.5465C22.1432 37.1455 22.013 37.7965 22 38.4996C22 39.1897 22.1302 39.8343 22.3906 40.4332C22.651 41.0322 23.0091 41.566 23.4648 42.0348C23.9206 42.5035 24.4479 42.8616 25.0469 43.109C25.6458 43.3564 26.2969 43.4866 27 43.4996ZM37 23.4996C37 24.1897 37.1302 24.8343 37.3906 25.4332C37.651 26.0322 38.0091 26.566 38.4648 27.0348C38.9206 27.5035 39.4479 27.8616 40.0469 28.109C40.6458 28.3564 41.2969 28.4866 42 28.4996C42.6901 28.4996 43.3346 28.3694 43.9336 28.109C44.5326 27.8486 45.0664 27.4905 45.5352 27.0348C46.0039 26.5791 46.362 26.0517 46.6094 25.4528C46.8568 24.8538 46.987 24.2028 47 23.4996C47 22.8095 46.8698 22.165 46.6094 21.566C46.349 20.9671 45.9909 20.4332 45.5352 19.9645C45.0794 19.4957 44.5521 19.1377 43.9531 18.8903C43.3542 18.6429 42.7031 18.5127 42 18.4996C41.3099 18.4996 40.6654 18.6298 40.0664 18.8903C39.4674 19.1507 38.9336 19.5087 38.4648 19.9645C37.9961 20.4202 37.638 20.9476 37.3906 21.5465C37.1432 22.1455 37.013 22.7965 37 23.4996Z" fill="#05FF00"/>
</g>
<defs>
<clipPath id="clip0_1348_1610">
<rect width="40" height="40" fill="white" transform="translate(17 16)"/>
</clipPath>
</defs>
</svg>
