<svg width="74" height="74" viewBox="0 0 74 74" fill="none" xmlns="http://www.w3.org/2000/svg">
<circle cx="37" cy="37" r="37" fill="#E2F6FF"/>
<path d="M37.0001 55.3337C33.889 55.3337 31.0279 54.6253 28.4167 53.2087C25.8056 51.792 23.6667 49.9031 22.0001 47.542V50.3337C22.0001 50.8059 21.8406 51.2014 21.5217 51.5203C21.2017 51.8403 20.8056 52.0003 20.3334 52.0003C19.8612 52.0003 19.4656 51.8403 19.1467 51.5203C18.8267 51.2014 18.6667 50.8059 18.6667 50.3337V43.667C18.6667 43.1948 18.8267 42.7987 19.1467 42.4787C19.4656 42.1598 19.8612 42.0003 20.3334 42.0003H27.0001C27.4723 42.0003 27.8684 42.1598 28.1884 42.4787C28.5073 42.7987 28.6667 43.1948 28.6667 43.667C28.6667 44.1392 28.5073 44.5348 28.1884 44.8537C27.8684 45.1737 27.4723 45.3337 27.0001 45.3337H24.5417C25.8751 47.3337 27.6323 48.9448 29.8134 50.167C31.9934 51.3892 34.389 52.0003 37.0001 52.0003C40.889 52.0003 44.2434 50.7225 47.0634 48.167C49.8823 45.6114 51.5001 42.4448 51.9167 38.667C51.9723 38.1948 52.1601 37.7987 52.4801 37.4787C52.799 37.1598 53.1945 37.0003 53.6667 37.0003C54.139 37.0003 54.5345 37.167 54.8534 37.5003C55.1734 37.8337 55.3056 38.2225 55.2501 38.667C55.0556 41.0003 54.4379 43.1809 53.3967 45.2087C52.3545 47.2364 51.0212 49.0003 49.3967 50.5003C47.7712 52.0003 45.8956 53.1809 43.7701 54.042C41.6456 54.9031 39.389 55.3337 37.0001 55.3337ZM20.3334 37.0003C19.8612 37.0003 19.4656 36.8337 19.1467 36.5003C18.8267 36.167 18.6945 35.7781 18.7501 35.3337C18.9723 33.0003 19.5973 30.8198 20.6251 28.792C21.6529 26.7642 22.979 25.0003 24.6034 23.5003C26.229 22.0003 28.1045 20.8198 30.2301 19.9587C32.3545 19.0975 34.6112 18.667 37.0001 18.667C40.1112 18.667 42.9723 19.3753 45.5834 20.792C48.1945 22.2087 50.3334 24.0975 52.0001 26.4587V23.667C52.0001 23.1948 52.1601 22.7987 52.4801 22.4787C52.799 22.1598 53.1945 22.0003 53.6667 22.0003C54.139 22.0003 54.5345 22.1598 54.8534 22.4787C55.1734 22.7987 55.3334 23.1948 55.3334 23.667V30.3337C55.3334 30.8059 55.1734 31.2014 54.8534 31.5203C54.5345 31.8403 54.139 32.0003 53.6667 32.0003H47.0001C46.5279 32.0003 46.1323 31.8403 45.8134 31.5203C45.4934 31.2014 45.3334 30.8059 45.3334 30.3337C45.3334 29.8614 45.4934 29.4653 45.8134 29.1453C46.1323 28.8264 46.5279 28.667 47.0001 28.667H49.4584C48.1251 26.667 46.3679 25.0559 44.1867 23.8337C42.0067 22.6114 39.6112 22.0003 37.0001 22.0003C33.1112 22.0003 29.7573 23.2781 26.9384 25.8337C24.1184 28.3892 22.5001 31.5559 22.0834 35.3337C22.0279 35.8059 21.8406 36.2014 21.5217 36.5203C21.2017 36.8403 20.8056 37.0003 20.3334 37.0003ZM36.9584 48.667C36.5695 48.667 36.2295 48.5214 35.9384 48.2303C35.6462 47.9381 35.5001 47.5975 35.5001 47.2087V46.5003C34.4445 46.2781 33.5417 45.8681 32.7917 45.2703C32.0417 44.6737 31.4445 43.9031 31.0001 42.9587C30.8334 42.5975 30.8406 42.2225 31.0217 41.8337C31.2017 41.4448 31.4862 41.1809 31.8751 41.042C32.2362 40.9031 32.5973 40.9031 32.9584 41.042C33.3195 41.1809 33.6112 41.4448 33.8334 41.8337C34.2223 42.5281 34.7084 43.0487 35.2917 43.3953C35.8751 43.7431 36.5279 43.917 37.2501 43.917C38.1667 43.917 38.9512 43.7014 39.6034 43.2703C40.2567 42.8403 40.5834 42.167 40.5834 41.2503C40.5834 40.4448 40.2434 39.792 39.5634 39.292C38.8823 38.792 37.6667 38.2225 35.9167 37.5837C34.2779 37.0003 33.0767 36.3059 32.3134 35.5003C31.549 34.6948 31.1667 33.6392 31.1667 32.3337C31.1667 31.1948 31.5556 30.167 32.3334 29.2503C33.1112 28.3337 34.1945 27.7225 35.5834 27.417V26.792C35.5834 26.4031 35.7295 26.0625 36.0217 25.7703C36.3129 25.4792 36.6529 25.3337 37.0417 25.3337C37.4306 25.3337 37.7706 25.4792 38.0617 25.7703C38.354 26.0625 38.5001 26.4031 38.5001 26.792V27.417C39.2501 27.4725 39.9517 27.7225 40.6051 28.167C41.2573 28.6114 41.8056 29.1531 42.2501 29.792C42.4723 30.1253 42.5073 30.4931 42.3551 30.8953C42.2017 31.2987 41.9167 31.5837 41.5001 31.7503C41.1945 31.8892 40.8684 31.8964 40.5217 31.772C40.174 31.6464 39.8612 31.417 39.5834 31.0837C39.3056 30.7503 38.9584 30.4864 38.5417 30.292C38.1251 30.0975 37.639 30.0003 37.0834 30.0003C36.1112 30.0003 35.3684 30.2087 34.8551 30.6253C34.3406 31.042 34.0834 31.6114 34.0834 32.3337C34.0834 33.0559 34.4029 33.6253 35.0417 34.042C35.6806 34.4587 36.8334 34.9448 38.5001 35.5003C40.5001 36.2225 41.8334 37.0698 42.5001 38.042C43.1667 39.0142 43.5001 40.0837 43.5001 41.2503C43.5001 42.8892 43.0001 44.1253 42.0001 44.9587C41.0001 45.792 39.8056 46.3337 38.4167 46.5837V47.2087C38.4167 47.5975 38.2712 47.9381 37.9801 48.2303C37.6879 48.5214 37.3473 48.667 36.9584 48.667V48.667Z" fill="#00B2FF"/>
</svg>
