<svg width="46" height="46" viewBox="0 0 46 46" fill="none" xmlns="http://www.w3.org/2000/svg">
<circle cx="23" cy="23" r="23" fill="#F7F9FC"/>
<path fill-rule="evenodd" clip-rule="evenodd" d="M23.0016 13C25.675 13 28.1874 14.0394 30.0745 15.9273C33.9752 19.828 33.9752 26.1739 30.0745 30.0745C28.1622 31.9876 25.5875 33 22.9793 33C21.5574 33 20.1263 32.6995 18.7873 32.0797C18.3928 31.9216 18.0233 31.7727 17.7581 31.7727C17.4529 31.7745 17.0426 31.916 16.6462 32.0528C15.8329 32.3319 14.8205 32.6799 14.0714 31.9337C13.3252 31.1865 13.6694 30.1769 13.9467 29.3646C14.0835 28.9645 14.224 28.5513 14.224 28.2387C14.224 27.9819 14.1003 27.6543 13.9105 27.1826C12.1676 23.4187 12.9734 18.8826 15.9297 15.9283C17.8168 14.0403 20.3282 13 23.0016 13ZM23.0025 14.3957C20.7014 14.3957 18.5398 15.2909 16.916 16.9155C14.372 19.4576 13.6797 23.361 15.1918 26.6298C15.4095 27.1686 15.6198 27.6934 15.6198 28.2387C15.6198 28.783 15.4328 29.3311 15.2681 29.8149C15.1322 30.2132 14.9266 30.8143 15.0587 30.9464C15.1881 31.0804 15.7929 30.8692 16.1921 30.7324C16.6713 30.5686 17.2147 30.3807 17.7535 30.3769C18.2932 30.3769 18.8022 30.5816 19.3409 30.7985C22.6415 32.3245 26.545 31.6303 29.0881 29.0882C32.4436 25.731 32.4436 20.2699 29.0881 16.9146C27.4634 15.2899 25.3028 14.3957 23.0025 14.3957ZM26.6752 22.4563C27.1888 22.4563 27.6057 22.8722 27.6057 23.3868C27.6057 23.9014 27.1888 24.3173 26.6752 24.3173C26.1615 24.3173 25.7409 23.9014 25.7409 23.3868C25.7409 22.8722 26.1532 22.4563 26.6668 22.4563H26.6752ZM22.9449 22.4563C23.4586 22.4563 23.8754 22.8722 23.8754 23.3868C23.8754 23.9014 23.4586 24.3173 22.9449 24.3173C22.4313 24.3173 22.0107 23.9014 22.0107 23.3868C22.0107 22.8722 22.422 22.4563 22.9366 22.4563H22.9449ZM19.2143 22.4563C19.7279 22.4563 20.1448 22.8722 20.1448 23.3868C20.1448 23.9014 19.7279 24.3173 19.2143 24.3173C18.7007 24.3173 18.2801 23.9014 18.2801 23.3868C18.2801 22.8722 18.6923 22.4563 19.2059 22.4563H19.2143Z" fill="black"/>
</svg>
