<svg width="74" height="74" viewBox="0 0 74 74" fill="none" xmlns="http://www.w3.org/2000/svg">
<circle cx="37" cy="37" r="37" fill="#FFFCEC"/>
<path d="M39.7785 42.6663H34.2218V38.778H30.3335V33.2213H34.2218V29.333H39.7785V33.2213H43.6668V38.778H39.7785V42.6663Z" stroke="#FFD600" stroke-width="2.5" stroke-linecap="round" stroke-linejoin="round"/>
<path d="M25.3335 46.0002L22.2169 24.1885C22.1576 23.7733 22.2576 23.351 22.4969 23.0066C22.7363 22.6622 23.0971 22.4211 23.5069 22.3318L36.2769 19.4935C36.7533 19.3876 37.2471 19.3876 37.7235 19.4935L50.4935 22.3335C51.3435 22.5218 51.9069 23.3268 51.7835 24.1902L48.6669 46.0002C48.5502 46.8252 47.8335 51.8335 37.0002 51.8335C26.1669 51.8335 25.4502 46.8252 25.3335 46.0002Z" stroke="#FFD600" stroke-width="2.5" stroke-linecap="round" stroke-linejoin="round"/>
</svg>
