<svg width="74" height="74" viewBox="0 0 74 74" fill="none" xmlns="http://www.w3.org/2000/svg">
<circle cx="37" cy="37" r="37" fill="#FFE9D9"/>
<path d="M36.9999 53.6663C27.7949 53.6663 20.3333 46.2047 20.3333 36.9997C20.3333 27.7947 27.7949 20.333 36.9999 20.333C46.2049 20.333 53.6666 27.7947 53.6666 36.9997C53.6666 46.2047 46.2049 53.6663 36.9999 53.6663ZM36.9999 50.333C40.5361 50.333 43.9275 48.9282 46.428 46.4278C48.9285 43.9273 50.3333 40.5359 50.3333 36.9997C50.3333 33.4635 48.9285 30.0721 46.428 27.5716C43.9275 25.0711 40.5361 23.6663 36.9999 23.6663C33.4637 23.6663 30.0723 25.0711 27.5718 27.5716C25.0713 30.0721 23.6666 33.4635 23.6666 36.9997C23.6666 40.5359 25.0713 43.9273 27.5718 46.4278C30.0723 48.9282 33.4637 50.333 36.9999 50.333V50.333ZM31.1666 40.333H40.3333C40.5543 40.333 40.7662 40.2452 40.9225 40.0889C41.0788 39.9326 41.1666 39.7207 41.1666 39.4997C41.1666 39.2787 41.0788 39.0667 40.9225 38.9104C40.7662 38.7541 40.5543 38.6663 40.3333 38.6663H33.6666C32.5615 38.6663 31.5017 38.2274 30.7203 37.446C29.9389 36.6646 29.4999 35.6047 29.4999 34.4997C29.4999 33.3946 29.9389 32.3348 30.7203 31.5534C31.5017 30.772 32.5615 30.333 33.6666 30.333H35.3333V26.9997H38.6666V30.333H42.8333V33.6663H33.6666C33.4456 33.6663 33.2336 33.7541 33.0773 33.9104C32.921 34.0667 32.8333 34.2787 32.8333 34.4997C32.8333 34.7207 32.921 34.9327 33.0773 35.0889C33.2336 35.2452 33.4456 35.333 33.6666 35.333H40.3333C41.4383 35.333 42.4981 35.772 43.2795 36.5534C44.0609 37.3348 44.4999 38.3946 44.4999 39.4997C44.4999 40.6047 44.0609 41.6646 43.2795 42.446C42.4981 43.2274 41.4383 43.6663 40.3333 43.6663H38.6666V46.9997H35.3333V43.6663H31.1666V40.333Z" fill="#FF6B00"/>
</svg>
