<svg width="46" height="46" viewBox="0 0 46 46" fill="none" xmlns="http://www.w3.org/2000/svg">
<circle cx="23" cy="23" r="23" fill="#F7F9FC"/>
<path fill-rule="evenodd" clip-rule="evenodd" d="M21.5234 31.6255C22.0555 32.2182 22.7386 32.5438 23.4473 32.5438H23.4483C24.1602 32.5438 24.8464 32.2182 25.3795 31.6245C25.665 31.3092 26.1519 31.2835 26.4673 31.568C26.7836 31.8525 26.8093 32.3405 26.5248 32.6558C25.6948 33.5772 24.6029 34.0846 23.4483 34.0846H23.4463C22.2948 34.0836 21.205 33.5762 20.3781 32.6548C20.0935 32.3394 20.1192 31.8515 20.4356 31.568C20.752 31.2824 21.2389 31.3081 21.5234 31.6255ZM23.4985 12C28.0643 12 31.1315 15.5561 31.1315 18.8771C31.1315 20.5853 31.566 21.3094 32.0272 22.0778C32.4833 22.8358 33 23.6966 33 25.3237C32.6415 29.4808 28.3016 29.8197 23.4985 29.8197C18.6953 29.8197 14.3544 29.4808 14 25.3894C13.9969 23.6966 14.5136 22.8358 14.9697 22.0778L15.1307 21.8068C15.5271 21.1254 15.8654 20.3843 15.8654 18.8771C15.8654 15.5561 18.9326 12 23.4985 12ZM23.4985 13.5408C19.9084 13.5408 17.4062 16.3532 17.4062 18.8771C17.4062 21.0126 16.8135 21.9997 16.2896 22.8708C15.8695 23.5703 15.5377 24.1229 15.5377 25.3237C15.7093 27.261 16.9881 28.2789 23.4985 28.2789C29.9729 28.2789 31.2918 27.2158 31.4623 25.2569C31.4592 24.1229 31.1274 23.5703 30.7073 22.8708C30.1834 21.9997 29.5907 21.0126 29.5907 18.8771C29.5907 16.3532 27.0885 13.5408 23.4985 13.5408Z" fill="black"/>
</svg>
