<svg width="74" height="74" viewBox="0 0 74 74" fill="none" xmlns="http://www.w3.org/2000/svg">
<circle cx="37" cy="37" r="37" fill="#FDF2D6"/>
<path d="M49.5 58.5H47V54.75C46.998 53.093 46.3389 51.5044 45.1672 50.3328C43.9956 49.1611 42.407 48.502 40.75 48.5H33.25C31.593 48.502 30.0044 49.1611 28.8328 50.3328C27.6611 51.5044 27.002 53.093 27 54.75V58.5H24.5V54.75C24.5026 52.4302 25.4254 50.2061 27.0657 48.5657C28.7061 46.9254 30.9302 46.0026 33.25 46H40.75C43.0698 46.0026 45.2939 46.9254 46.9343 48.5657C48.5746 50.2061 49.4974 52.4302 49.5 54.75V58.5ZM23.25 28.5C22.9185 28.5 22.6005 28.6317 22.3661 28.8661C22.1317 29.1005 22 29.4185 22 29.75V41H24.5V29.75C24.5 29.4185 24.3683 29.1005 24.1339 28.8661C23.8995 28.6317 23.5815 28.5 23.25 28.5Z" fill="#FFB800"/>
<path d="M22 23.5V26H28.25V34.75C28.25 37.0706 29.1719 39.2962 30.8128 40.9372C32.4538 42.5781 34.6794 43.5 37 43.5C39.3206 43.5 41.5462 42.5781 43.1872 40.9372C44.8281 39.2962 45.75 37.0706 45.75 34.75V26H52V23.5H22ZM30.75 26H43.25V29.75H30.75V26ZM37 41C35.3424 41 33.7527 40.3415 32.5806 39.1694C31.4085 37.9973 30.75 36.4076 30.75 34.75V32.25H43.25V34.75C43.25 36.4076 42.5915 37.9973 41.4194 39.1694C40.2473 40.3415 38.6576 41 37 41Z" fill="#FFB800"/>
</svg>
