<svg width="10" height="10" viewBox="0 0 10 10" fill="none" xmlns="http://www.w3.org/2000/svg">
<mask id="mask0_1348_1665" style="mask-type:luminance" maskUnits="userSpaceOnUse" x="0" y="0" width="10" height="10">
<path fill-rule="evenodd" clip-rule="evenodd" d="M0 0.237305H10V9.76276H0V0.237305Z" fill="white"/>
</mask>
<g mask="url(#mask0_1348_1665)">
<path fill-rule="evenodd" clip-rule="evenodd" d="M0.89064 4.69359C1.57546 6.82425 4.28104 8.54705 5.00005 8.97348C5.72151 8.54265 8.44662 6.80081 9.10946 4.69554C9.54468 3.33469 9.14073 1.61092 7.53565 1.09364C6.75802 0.844038 5.85095 0.995949 5.22474 1.4805C5.09384 1.58112 4.91213 1.58308 4.78025 1.48343C4.11692 0.984715 3.25039 0.838665 2.46055 1.09364C0.857914 1.61043 0.455423 3.33421 0.89064 4.69359M5.00059 9.76282C4.94002 9.76282 4.87994 9.74816 4.82523 9.71837C4.67234 9.63484 1.07093 7.64974 0.193165 4.9173C0.192676 4.9173 0.192676 4.91681 0.192676 4.91681C-0.358306 3.19645 0.255199 1.03453 2.2359 0.396112C3.16593 0.0952206 4.17949 0.227593 4.99912 0.744872C5.79336 0.242735 6.84843 0.104013 7.7599 0.396112C9.74255 1.03551 10.358 3.19694 9.80752 4.91681C8.95809 7.61799 5.3303 9.63289 5.17643 9.71739C5.12172 9.74767 5.06116 9.76282 5.00059 9.76282" fill="#767676"/>
</g>
<path fill-rule="evenodd" clip-rule="evenodd" d="M7.89031 3.96221C7.70128 3.96221 7.54106 3.81713 7.52543 3.62566C7.49319 3.22414 7.22454 2.88515 6.84208 2.76157C6.64914 2.69905 6.54363 2.49243 6.60566 2.30046C6.66867 2.10801 6.87334 2.00348 7.06677 2.06405C7.73254 2.27946 8.19902 2.86903 8.25617 3.56606C8.27229 3.7678 8.12233 3.94462 7.9206 3.96074C7.91034 3.96172 7.90057 3.96221 7.89031 3.96221" fill="#767676"/>
</svg>
