<svg width="9" height="12" viewBox="0 0 9 12" fill="none" xmlns="http://www.w3.org/2000/svg">
<path fill-rule="evenodd" clip-rule="evenodd" d="M6.04288 0.5C7.79472 0.5 8.79976 1.38593 8.79976 2.92932V10.5993C8.79976 10.9212 8.63759 11.2108 8.3649 11.3728C8.09324 11.5354 7.7658 11.5385 7.49104 11.3802L4.41293 9.60361L1.30641 11.3839C1.17213 11.461 1.02493 11.5 0.877225 11.5C0.724869 11.5 0.572512 11.4583 0.434101 11.3749C0.161925 11.213 -0.000244141 10.9233 -0.000244141 10.6019V2.83276C-0.000244141 1.35005 1.00531 0.5 2.7587 0.5H6.04288ZM6.04288 1.29148H2.7587C1.44223 1.29148 0.774449 1.80964 0.774449 2.83276V10.6019C0.774449 10.6515 0.802338 10.6784 0.825579 10.6922C0.84882 10.7069 0.885489 10.7175 0.927839 10.6932L4.2239 8.80422C4.34165 8.7372 4.48575 8.73668 4.60402 8.80474L7.87167 10.6906C7.91454 10.7159 7.95121 10.7043 7.97445 10.6901C7.99769 10.6758 8.02506 10.6489 8.02506 10.5993L8.02488 2.86919C8.02097 2.41505 7.93496 1.29148 6.04288 1.29148ZM6.2695 4.05032C6.48332 4.05032 6.65685 4.22761 6.65685 4.44606C6.65685 4.66451 6.48332 4.8418 6.2695 4.8418H2.49003C2.27622 4.8418 2.10269 4.66451 2.10269 4.44606C2.10269 4.22761 2.27622 4.05032 2.49003 4.05032H6.2695Z" fill="#767676"/>
</svg>
