<svg width="15" height="15" viewBox="0 0 13 14" fill="none" xmlns="http://www.w3.org/2000/svg">
<path d="M10.2917 2.66699H2.70833C2.42102 2.66699 2.14547 2.78113 1.9423 2.98429C1.73914 3.18746 1.625 3.46301 1.625 3.75033V9.16699C1.625 9.45431 1.73914 9.72986 1.9423 9.93302C2.14547 10.1362 2.42102 10.2503 2.70833 10.2503H4.43517C4.97683 10.2503 5.41667 10.6896 5.41667 11.2318C5.41667 11.6695 5.94533 11.8883 6.25463 11.579L7.26592 10.5677C7.46903 10.3646 7.74454 10.2504 8.03183 10.2503H10.2917C10.579 10.2503 10.8545 10.1362 11.0577 9.93302C11.2609 9.72986 11.375 9.45431 11.375 9.16699V3.75033C11.375 3.46301 11.2609 3.18746 11.0577 2.98429C10.8545 2.78113 10.579 2.66699 10.2917 2.66699V2.66699Z" stroke="#767676" stroke-linecap="round" stroke-linejoin="round"/>
</svg>
