<svg width="28" height="28" viewBox="0 0 28 28" fill="none" xmlns="http://www.w3.org/2000/svg">
<path d="M12.3673 16.0997L9.82982 13.5622C9.61593 13.3483 9.35343 13.2413 9.04232 13.2413C8.73121 13.2413 8.45898 13.358 8.22565 13.5913C8.01176 13.8052 7.90482 14.0775 7.90482 14.408C7.90482 14.7386 8.01176 15.0108 8.22565 15.2247L11.5507 18.5497C11.7645 18.7636 12.0368 18.8705 12.3673 18.8705C12.6979 18.8705 12.9701 18.7636 13.184 18.5497L19.8048 11.9288C20.0187 11.715 20.1257 11.4525 20.1257 11.1413C20.1257 10.8302 20.009 10.558 19.7757 10.3247C19.5618 10.1108 19.2895 10.0038 18.959 10.0038C18.6284 10.0038 18.3562 10.1108 18.1423 10.3247L12.3673 16.0997ZM14.0007 25.6663C12.3868 25.6663 10.8701 25.3599 9.45065 24.747C8.03121 24.1349 6.79648 23.3038 5.74648 22.2538C4.69648 21.2038 3.86543 19.9691 3.25332 18.5497C2.64043 17.1302 2.33398 15.6136 2.33398 13.9997C2.33398 12.3858 2.64043 10.8691 3.25332 9.44967C3.86543 8.03023 4.69648 6.79551 5.74648 5.74551C6.79648 4.69551 8.03121 3.86406 9.45065 3.25117C10.8701 2.63906 12.3868 2.33301 14.0007 2.33301C15.6145 2.33301 17.1312 2.63906 18.5507 3.25117C19.9701 3.86406 21.2048 4.69551 22.2548 5.74551C23.3048 6.79551 24.1359 8.03023 24.748 9.44967C25.3609 10.8691 25.6673 12.3858 25.6673 13.9997C25.6673 15.6136 25.3609 17.1302 24.748 18.5497C24.1359 19.9691 23.3048 21.2038 22.2548 22.2538C21.2048 23.3038 19.9701 24.1349 18.5507 24.747C17.1312 25.3599 15.6145 25.6663 14.0007 25.6663Z" fill="black"/>
</svg>
