<svg width="28" height="28" viewBox="0 0 28 28" fill="none" xmlns="http://www.w3.org/2000/svg">
<path d="M8.34155 24.617C8.04989 24.3253 7.90405 23.98 7.90405 23.581C7.90405 23.1828 8.04989 22.8378 8.34155 22.5462L16.8874 14.0003L8.31239 5.42533C8.04016 5.1531 7.90405 4.81283 7.90405 4.40449C7.90405 3.99616 8.04989 3.64616 8.34155 3.35449C8.63322 3.06283 8.97855 2.91699 9.37755 2.91699C9.77577 2.91699 10.1207 3.06283 10.4124 3.35449L20.2124 13.1837C20.3291 13.3003 20.4119 13.4267 20.4609 13.5628C20.5091 13.6989 20.5332 13.8448 20.5332 14.0003C20.5332 14.1559 20.5091 14.3017 20.4609 14.4378C20.4119 14.5739 20.3291 14.7003 20.2124 14.817L10.3832 24.6462C10.111 24.9184 9.77577 25.0545 9.37755 25.0545C8.97855 25.0545 8.63322 24.9087 8.34155 24.617Z" fill="black"/>
</svg>
