<svg width="20" height="20" viewBox="0 0 20 20" fill="none" xmlns="http://www.w3.org/2000/svg">
<path opacity="0.2" d="M17.0547 7.32024L15 9.37493L10.625 4.99993L12.6797 2.94524C12.7378 2.88619 12.8072 2.83929 12.8836 2.80728C12.9601 2.77527 13.0421 2.75879 13.125 2.75879C13.2079 2.75879 13.2899 2.77527 13.3664 2.80728C13.4428 2.83929 13.5122 2.88619 13.5703 2.94524L17.0547 6.42962C17.1137 6.48777 17.1606 6.5571 17.1926 6.63355C17.2247 6.71 17.2411 6.79205 17.2411 6.87493C17.2411 6.95781 17.2247 7.03987 17.1926 7.11632C17.1606 7.19277 17.1137 7.26209 17.0547 7.32024V7.32024Z" fill="black"/>
<path d="M17.5 5.99233L14.0078 2.50014C13.8923 2.38345 13.7548 2.29082 13.6033 2.2276C13.4517 2.16439 13.2892 2.13184 13.125 2.13184C12.9608 2.13184 12.7983 2.16439 12.6467 2.2276C12.4952 2.29082 12.3577 2.38345 12.2422 2.50014L2.86719 11.8751C2.7507 11.9907 2.65828 12.1283 2.59525 12.2798C2.53223 12.4313 2.49985 12.5938 2.5 12.758V16.2501C2.5 16.5817 2.6317 16.8996 2.86612 17.134C3.10054 17.3684 3.41848 17.5001 3.75 17.5001H7.24219C7.4063 17.5003 7.56881 17.4679 7.72034 17.4049C7.87186 17.3419 8.0094 17.2494 8.125 17.133L17.5 7.75795C17.7319 7.52262 17.8619 7.20551 17.8619 6.87514C17.8619 6.54477 17.7319 6.22766 17.5 5.99233V5.99233ZM7.24219 16.2501H3.75V12.758L10.625 5.88295L14.1172 9.37514L7.24219 16.2501ZM15 8.49233L11.5078 5.00014L13.125 3.38295L16.6172 6.87514L15 8.49233Z" fill="black"/>
</svg>
