<svg width="10" height="10" viewBox="0 0 10 10" fill="none" xmlns="http://www.w3.org/2000/svg">
<path d="M9.0445 4.70533L5.71117 1.37199C5.6529 1.31374 5.57866 1.27407 5.49785 1.258C5.41703 1.24193 5.33327 1.25018 5.25715 1.28171C5.18102 1.31324 5.11595 1.36663 5.07017 1.43514C5.02438 1.50364 4.99994 1.58418 4.99992 1.66658V3.14366C3.86171 3.24899 2.80376 3.77527 2.03312 4.61951C1.26248 5.46374 0.834615 6.56517 0.833252 7.70824V8.33324C0.833318 8.41974 0.860298 8.50406 0.91045 8.57453C0.960601 8.645 1.03144 8.69811 1.11314 8.7265C1.19484 8.7549 1.28335 8.75716 1.36639 8.73298C1.44943 8.70881 1.52289 8.65939 1.57659 8.59158C1.98479 8.10614 2.48565 7.70693 3.0499 7.41726C3.61414 7.12759 4.23046 6.95327 4.86283 6.90449C4.88367 6.90199 4.93575 6.89783 4.99992 6.89366V8.33324C4.99994 8.41564 5.02438 8.49618 5.07017 8.56469C5.11595 8.63319 5.18102 8.68658 5.25715 8.71811C5.33327 8.74964 5.41703 8.75789 5.49785 8.74182C5.57866 8.72575 5.6529 8.68608 5.71117 8.62783L9.0445 5.29449C9.12262 5.21636 9.1665 5.1104 9.1665 4.99991C9.1665 4.88943 9.12262 4.78346 9.0445 4.70533V4.70533ZM5.83325 7.32741V6.45824C5.83325 6.34774 5.78935 6.24176 5.71121 6.16362C5.63307 6.08548 5.52709 6.04158 5.41659 6.04158C5.31034 6.04158 4.87659 6.06241 4.76575 6.07699C3.64278 6.18046 2.57384 6.60711 1.68825 7.30533C1.78877 6.38634 2.22473 5.53672 2.91265 4.91914C3.60057 4.30157 4.49212 3.95943 5.41659 3.95824C5.52709 3.95824 5.63307 3.91435 5.71121 3.83621C5.78935 3.75807 5.83325 3.65208 5.83325 3.54158V2.67241L8.16075 4.99991L5.83325 7.32741Z" fill="#767676"/>
</svg>
